<svg width="213" height="32" viewBox="0 0 213 32" fill="none" xmlns="http://www.w3.org/2000/svg">
    <path fill-rule="evenodd" clip-rule="evenodd" d="M0.453828 15.9423C0.388559 15.9497 0.336344 15.8751 0.382032 15.8145L5.30051 9.39393C5.47115 9.16269 5.69492 8.97994 5.94668 8.85406C6.19563 8.72259 6.47349 8.64706 6.76067 8.6424L14.8447 8.3776C14.9202 8.37573 14.951 8.46058 14.9072 8.51C15.0097 8.42515 15.0023 8.26104 14.8773 8.19951C13.6167 7.57945 12.4624 7.11324 12.4624 7.11324L12.4605 7.11511C10.2964 6.26382 7.01429 4.91088 4.10143 4.68151C3.9998 4.67405 3.89443 4.6927 3.82264 4.7244C3.7555 4.76449 3.69117 4.82044 3.63802 4.90809C2.09394 7.45451 1.30885 10.8849 0.741944 13.1404L0.740079 13.1413C0.740079 13.1413 0.448234 14.3516 0.21886 15.7371C0.196482 15.8751 0.325155 15.9768 0.453828 15.9423Z" fill="#1295D8"/>
    <path fill-rule="evenodd" clip-rule="evenodd" d="M14.8451 8.37768L6.76105 8.64252C6.47387 8.64718 6.19508 8.72271 5.94612 8.85418C5.69437 8.98005 5.47152 9.16281 5.29996 9.39405L0.38241 15.8146C0.336722 15.8753 0.388005 15.9498 0.454206 15.9424C0.46726 15.9387 0.480313 15.9349 0.493367 15.9284L7.68134 12.2277L14.873 8.53343C14.8852 8.5269 14.8964 8.51851 14.9066 8.51012C14.9504 8.4607 14.9206 8.37585 14.8451 8.37768Z" fill="#29588C"/>
    <path fill-rule="evenodd" clip-rule="evenodd" d="M7.88449 29.1788L4.78235 21.7083C4.66859 21.4454 4.62197 21.161 4.63783 20.8794C4.64901 20.5978 4.72267 20.319 4.86254 20.0682L8.67518 12.9343C8.71061 12.8681 8.80012 12.8849 8.82063 12.9474C8.79825 12.8159 8.6528 12.7404 8.53625 12.8178C7.3698 13.6001 6.3889 14.3665 6.3889 14.3665V14.3684C4.56976 15.8164 1.75667 17.9833 0.102565 20.3908C0.0447558 20.4747 0.00839172 20.5764 0 20.6538C0.000932414 20.7321 0.0177159 20.8151 0.0671338 20.9055C1.50025 23.5163 4.07838 25.9107 5.74833 27.5294V27.5312C5.74833 27.5312 6.64997 28.39 7.7353 29.2814C7.84253 29.369 7.99545 29.3084 8.02995 29.1798C8.00384 29.2404 7.91339 29.2488 7.88449 29.1788Z" fill="#1295D8"/>
    <path fill-rule="evenodd" clip-rule="evenodd" d="M8.675 12.9346L4.86236 20.0685C4.72343 20.3193 4.64883 20.5972 4.63858 20.8797C4.62179 21.1603 4.66841 21.4447 4.78217 21.7086L7.88431 29.1791C7.91321 29.2481 8.00366 29.2406 8.0307 29.18C8.0335 29.167 8.03722 29.153 8.03816 29.139L8.42697 21.0634L8.82418 12.9887C8.82418 12.9747 8.82232 12.9607 8.82045 12.9476C8.79994 12.8842 8.71043 12.8684 8.675 12.9346Z" fill="#29588C"/>
    <path fill-rule="evenodd" clip-rule="evenodd" d="M23.2085 29.3631L15.1879 28.315C14.9026 28.2824 14.6331 28.1798 14.3982 28.025C14.1595 27.8749 13.9553 27.6717 13.8079 27.4255L9.53656 20.5564C9.49646 20.4921 9.55521 20.4231 9.61954 20.4371C9.4946 20.3904 9.3566 20.479 9.36593 20.6179C9.45917 22.0194 9.63353 23.252 9.63353 23.252L9.63446 23.253C9.97945 25.5532 10.4494 29.0721 11.7072 31.709C11.751 31.8013 11.821 31.8824 11.8834 31.9291C11.9515 31.9673 12.0326 31.9953 12.1352 31.9971C15.1124 32.0615 18.4756 31.0256 20.7125 30.3887L20.7143 30.3896C20.7143 30.3896 21.9078 30.0381 23.2225 29.5439C23.3531 29.4945 23.3773 29.3323 23.2831 29.2381C23.3223 29.2913 23.2831 29.3724 23.2085 29.3631Z" fill="#1295D8"/>
    <path fill-rule="evenodd" clip-rule="evenodd" d="M9.5363 20.5564L13.8077 27.4255C13.955 27.6717 14.1601 27.8749 14.3979 28.025C14.6338 28.1798 14.9033 28.2815 15.1886 28.315L23.2083 29.3631C23.2829 29.3724 23.322 29.2913 23.2829 29.2381C23.2735 29.2279 23.2633 29.2185 23.2512 29.2101L16.452 24.8353L9.65751 20.4548C9.64539 20.4473 9.63234 20.4417 9.62022 20.4371C9.55495 20.4231 9.4962 20.4921 9.5363 20.5564Z" fill="#29588C"/>
    <path fill-rule="evenodd" clip-rule="evenodd" d="M30.9591 16.0575C31.0244 16.0501 31.0766 16.1247 31.0309 16.1843L26.1124 22.6059C25.9418 22.8371 25.719 23.0189 25.4663 23.1457C25.2173 23.2772 24.9395 23.3527 24.6523 23.3574L16.5683 23.6213C16.4927 23.6241 16.462 23.5383 16.5058 23.4898C16.4032 23.5737 16.4107 23.7388 16.5356 23.8003C17.7962 24.4194 18.9515 24.8856 18.9515 24.8856L18.9524 24.8847C21.1166 25.736 24.3996 27.0889 27.3115 27.3183C27.4132 27.3257 27.5185 27.3062 27.5903 27.2745C27.6575 27.2353 27.7218 27.1784 27.7749 27.0908C29.319 24.5453 30.1041 21.114 30.671 18.8594L30.6719 18.8585C30.6719 18.8585 30.9647 17.6482 31.1941 16.2617C31.2174 16.1247 31.0878 16.023 30.9591 16.0575Z" fill="#1295D8"/>
    <path fill-rule="evenodd" clip-rule="evenodd" d="M16.5679 23.6215L24.6519 23.3576C24.9391 23.352 25.217 23.2774 25.4669 23.1459C25.7186 23.0191 25.9415 22.8364 26.113 22.606L31.0306 16.1845C31.0763 16.1248 31.025 16.0502 30.9588 16.0577C30.9457 16.0605 30.9327 16.0642 30.9196 16.0717L23.7316 19.7715L16.5399 23.4657C16.5278 23.4723 16.5166 23.4807 16.5064 23.49C16.4616 23.5385 16.4924 23.6242 16.5679 23.6215Z" fill="#29588C"/>
    <path fill-rule="evenodd" clip-rule="evenodd" d="M31.3458 11.094C29.9127 8.48329 27.3345 6.08792 25.6646 4.47018V4.46832C25.6646 4.46832 24.7629 3.60956 23.6776 2.71817C23.5695 2.6296 23.4175 2.6902 23.383 2.81981C23.4091 2.7592 23.4995 2.75174 23.5284 2.82074L26.6306 10.2912C26.7453 10.5542 26.7919 10.8386 26.7751 11.1202C26.7639 11.4017 26.6902 11.6805 26.5504 11.9314L22.7377 19.0653C22.7023 19.1315 22.6128 19.1147 22.5923 19.0522C22.6147 19.1837 22.7601 19.2592 22.8757 19.1818C24.0431 18.3995 25.024 17.6331 25.024 17.6331V17.6312C26.8432 16.1822 29.6562 14.0162 31.3104 11.6087C31.3682 11.5248 31.4045 11.4241 31.4129 11.3458C31.412 11.2675 31.3952 11.1836 31.3458 11.094Z" fill="#1295D8"/>
    <path fill-rule="evenodd" clip-rule="evenodd" d="M22.738 19.0649L26.5506 11.931C26.6905 11.6802 26.7642 11.4014 26.7753 11.1198C26.7912 10.8391 26.7446 10.5547 26.6308 10.2909L23.5287 2.8213C23.4998 2.75137 23.4084 2.75883 23.3823 2.81943C23.3786 2.83249 23.3758 2.84647 23.3748 2.86046L22.986 10.9361L22.5888 19.0108C22.5879 19.0248 22.5907 19.0388 22.5925 19.0518C22.6131 19.1152 22.7026 19.1311 22.738 19.0649Z" fill="#29588C"/>
    <path fill-rule="evenodd" clip-rule="evenodd" d="M8.2044 2.636L16.2241 3.68496C16.5094 3.7176 16.7798 3.81923 17.0148 3.97401C17.2535 4.12413 17.4577 4.3274 17.6059 4.57449L21.8764 11.4426C21.9165 11.507 21.8577 11.576 21.7934 11.562C21.9183 11.6095 22.0563 11.52 22.047 11.3811C21.9538 9.97969 21.7794 8.74704 21.7794 8.74704L21.7785 8.7461C21.4335 6.44677 20.9635 2.92691 19.7057 0.290978C19.6619 0.198669 19.592 0.116617 19.5295 0.0709288C19.4614 0.0326999 19.3803 0.00472745 19.2777 0.00286262C16.3005 -0.0614739 12.9364 0.973505 10.7005 1.61034L10.6986 1.60941C10.6986 1.60941 9.50511 1.96093 8.18948 2.45604C8.05894 2.50453 8.03563 2.6677 8.1298 2.76187C8.09064 2.70873 8.1298 2.62667 8.2044 2.636Z" fill="#1295D8"/>
    <path fill-rule="evenodd" clip-rule="evenodd" d="M21.8767 11.4427L17.6053 4.57456C17.457 4.32747 17.2528 4.12421 17.0151 3.97409C16.7792 3.81931 16.5097 3.71768 16.2244 3.68504L8.20468 2.63608C8.12916 2.62675 8.09093 2.7088 8.13009 2.76195C8.13941 2.77128 8.14967 2.78153 8.16179 2.78899L14.961 7.16388L21.7554 11.5444C21.7676 11.5527 21.7797 11.5574 21.7927 11.5621C21.8571 11.5761 21.9158 11.5071 21.8767 11.4427Z" fill="#29588C"/>
    <path fill-rule="evenodd" clip-rule="evenodd" d="M123.288 31.8024H123.491V0.180573H123.288V31.8024ZM77.5343 4.32152H71.371L61.8259 28.6584L52.2267 4.32152H46.0634L36.1938 29.3717H39.9617C41.0238 29.3717 41.9757 28.7209 42.3599 27.7307L48.7553 11.2643C48.9884 10.6918 49.1749 10.0363 49.3148 9.29594C49.4313 9.94397 49.6075 10.6032 49.8407 11.2736L52.2631 17.504H47.9264L46.2052 21.9982H54.0477L56.2212 27.6822C56.6174 28.7013 57.5983 29.3717 58.6921 29.3717H62.0944H62.1075H65.2693C66.3313 29.3717 67.2833 28.7209 67.6684 27.7316L74.0629 11.2643C74.296 10.6918 74.4834 10.0363 74.6233 9.29594C74.7398 9.94397 74.9142 10.6032 75.1482 11.2736L77.5716 17.504H73.2032L71.4792 21.9982H79.3487L81.5297 27.6822C81.925 28.7013 82.9068 29.3717 83.9996 29.3717H87.4029L77.5343 4.32152ZM95.6747 21.9977V17.5035L99.3894 17.5007C100.63 17.5007 101.722 17.3096 102.432 16.642C103.163 15.9529 103.467 14.9515 103.467 13.2415C103.467 11.5314 103.051 10.5934 102.319 9.90434C101.609 9.23674 100.517 9.04559 99.2775 9.04559H94.0886V26.6813C94.0886 28.1675 92.9651 29.3722 91.4779 29.3722H88.7198V4.32105H99.0267C100.339 4.32105 101.55 4.45345 102.658 4.71546C103.768 4.9784 104.818 5.40731 105.808 6.00406C106.798 6.6008 107.574 7.44743 108.135 8.54488C108.695 9.64234 108.976 10.9542 108.976 12.4815C108.976 16.2746 107.994 19.8681 104.343 21.0364L110.979 29.3722H106.092C105.27 29.3722 104.494 28.9909 103.992 28.3391L99.1041 21.9977H95.6747ZM112.087 5.49359V6.12297H112.586C112.65 6.12297 112.702 6.1211 112.741 6.11551C112.78 6.11085 112.828 6.10059 112.884 6.08381C112.94 6.06796 112.983 6.03625 113.013 5.98963C113.041 5.94301 113.056 5.88241 113.056 5.80874C113.056 5.73415 113.041 5.67354 113.013 5.62692C112.983 5.57937 112.94 5.5486 112.884 5.53182C112.828 5.51597 112.78 5.50571 112.741 5.50105C112.702 5.49545 112.65 5.49359 112.586 5.49359H112.087ZM112.087 7.11599H111.796V5.21293H112.615C112.734 5.21293 112.844 5.22692 112.945 5.25582C113.044 5.28566 113.136 5.34627 113.218 5.44044C113.3 5.53368 113.341 5.65676 113.341 5.80874C113.341 6.09873 113.202 6.28241 112.925 6.36073L113.458 7.11599H113.123L112.634 6.40456H112.57H112.087V7.11599ZM110.957 5.46655C110.857 5.67541 110.809 5.90851 110.809 6.16679C110.809 6.42507 110.857 6.65817 110.957 6.8661C111.055 7.07496 111.185 7.24373 111.346 7.3724C111.507 7.50201 111.686 7.60084 111.881 7.67077C112.077 7.73977 112.278 7.77427 112.484 7.77427C112.69 7.77427 112.892 7.73977 113.088 7.67077C113.284 7.60084 113.461 7.50201 113.623 7.3724C113.784 7.24373 113.914 7.07496 114.013 6.8661C114.111 6.65817 114.16 6.42507 114.16 6.16679C114.16 5.90851 114.111 5.67541 114.013 5.46655C113.914 5.25862 113.784 5.08985 113.623 4.96025C113.461 4.83157 113.284 4.73181 113.088 4.66281C112.892 4.59381 112.69 4.55838 112.484 4.55838C112.278 4.55838 112.077 4.59381 111.881 4.66281C111.686 4.73181 111.507 4.83157 111.346 4.96025C111.185 5.08985 111.055 5.25862 110.957 5.46655ZM114.149 5.40128C114.256 5.63065 114.311 5.8852 114.311 6.16679C114.311 6.44745 114.256 6.70293 114.149 6.9323C114.04 7.16074 113.897 7.34536 113.719 7.48429C113.542 7.62229 113.346 7.73045 113.133 7.80597C112.92 7.8815 112.704 7.91973 112.484 7.91973C112.265 7.91973 112.048 7.8815 111.835 7.80597C111.622 7.73045 111.427 7.62229 111.25 7.48429C111.072 7.34536 110.929 7.16074 110.821 6.9323C110.713 6.70293 110.659 6.44745 110.659 6.16679C110.659 5.8852 110.713 5.63065 110.821 5.40128C110.929 5.17191 111.072 4.98822 111.25 4.84929C111.427 4.71036 111.622 4.60313 111.835 4.52761C112.048 4.45115 112.265 4.41292 112.484 4.41292C112.704 4.41292 112.92 4.45115 113.133 4.52761C113.346 4.60313 113.542 4.71036 113.719 4.84929C113.897 4.98822 114.04 5.17191 114.149 5.40128ZM210.856 12.2416V12.8057H211.303C211.361 12.8057 211.407 12.8039 211.442 12.7992C211.477 12.7945 211.519 12.7852 211.571 12.7712C211.621 12.7563 211.658 12.7283 211.684 12.6864C211.71 12.6444 211.724 12.5903 211.724 12.5232C211.724 12.457 211.71 12.4029 211.684 12.361C211.658 12.319 211.621 12.291 211.571 12.2761C211.519 12.2621 211.477 12.2528 211.442 12.2482C211.407 12.2435 211.361 12.2416 211.303 12.2416H210.856ZM210.856 13.6953H210.596V11.9899H211.329C211.436 11.9899 211.535 12.0029 211.625 12.029C211.714 12.0551 211.795 12.1102 211.87 12.1941C211.944 12.278 211.98 12.388 211.98 12.5232C211.98 12.7834 211.856 12.9484 211.607 13.0183L212.084 13.6953H211.785L211.346 13.0575H211.289H210.856V13.6953ZM209.844 12.2174C209.755 12.4039 209.711 12.6127 209.711 12.8449C209.711 13.0761 209.755 13.285 209.844 13.4715C209.931 13.658 210.048 13.809 210.192 13.9246C210.337 14.0403 210.497 14.1298 210.672 14.1913C210.847 14.2538 211.027 14.2845 211.213 14.2845C211.397 14.2845 211.577 14.2538 211.752 14.1913C211.927 14.1298 212.087 14.0403 212.232 13.9246C212.376 13.809 212.492 13.658 212.58 13.4715C212.669 13.285 212.713 13.0761 212.713 12.8449C212.713 12.6127 212.669 12.4039 212.58 12.2174C212.492 12.0309 212.376 11.8798 212.232 11.7642C212.087 11.6486 211.927 11.56 211.752 11.4976C211.577 11.4351 211.397 11.4043 211.213 11.4043C211.027 11.4043 210.847 11.4351 210.672 11.4976C210.497 11.56 210.337 11.6486 210.192 11.7642C210.048 11.8798 209.931 12.0309 209.844 12.2174ZM212.703 12.1586C212.799 12.3647 212.848 12.5931 212.848 12.8449C212.848 13.0957 212.799 13.3251 212.703 13.5302C212.605 13.7354 212.477 13.9004 212.318 14.0244C212.159 14.1493 211.985 14.2454 211.793 14.3134C211.602 14.3806 211.409 14.4151 211.213 14.4151C211.015 14.4151 210.821 14.3806 210.631 14.3134C210.44 14.2454 210.265 14.1493 210.106 14.0244C209.947 13.9004 209.819 13.7354 209.722 13.5302C209.626 13.3251 209.576 13.0957 209.576 12.8449C209.576 12.5931 209.626 12.3647 209.722 12.1586C209.819 11.9535 209.947 11.7885 210.106 11.6645C210.265 11.5405 210.44 11.4435 210.631 11.3763C210.821 11.3083 211.015 11.2738 211.213 11.2738C211.409 11.2738 211.602 11.3083 211.793 11.3763C211.985 11.4435 212.159 11.5405 212.318 11.6645C212.477 11.7885 212.605 11.9535 212.703 12.1586ZM199.945 11.2757H201.043V15.6087H201.067C201.206 15.2991 201.445 15.0492 201.788 14.8581C202.13 14.6669 202.524 14.5709 202.972 14.5709C203.249 14.5709 203.515 14.6138 203.771 14.6996C204.027 14.7844 204.25 14.9168 204.442 15.0958C204.632 15.2749 204.785 15.5042 204.899 15.7849C205.013 16.0665 205.071 16.3975 205.071 16.7807V20.502H203.972V17.0847C203.972 16.8161 203.935 16.5868 203.862 16.3956C203.789 16.2045 203.691 16.0497 203.569 15.9313C203.447 15.8138 203.306 15.728 203.148 15.6758C202.989 15.6226 202.825 15.5965 202.655 15.5965C202.426 15.5965 202.215 15.6329 202.02 15.7056C201.824 15.7784 201.653 15.8949 201.507 16.0534C201.36 16.2129 201.246 16.4133 201.166 16.6576C201.084 16.9019 201.043 17.191 201.043 17.5248V20.502H199.945V11.2757ZM150.445 20.5016H151.543V14.7169H150.445V20.5016ZM150.189 12.6423C150.189 12.4232 150.268 12.2339 150.426 12.0754C150.585 11.9159 150.774 11.8376 150.993 11.8376C151.213 11.8376 151.403 11.9159 151.561 12.0754C151.72 12.2339 151.799 12.4232 151.799 12.6423C151.799 12.8623 151.72 13.0516 151.561 13.2101C151.403 13.3686 151.213 13.4479 150.993 13.4479C150.774 13.4479 150.585 13.3686 150.426 13.2101C150.268 13.0516 150.189 12.8623 150.189 12.6423ZM137.412 19.4038H135.934V12.9599H137.691C138.391 12.9599 138.96 13.0755 139.4 13.3076C139.84 13.5398 140.184 13.8223 140.431 14.1561C140.68 14.4899 140.849 14.8415 140.938 15.2116C141.028 15.5818 141.072 15.9054 141.072 16.1813C141.072 16.7184 140.975 17.1884 140.78 17.5912C140.584 17.994 140.319 18.3306 139.985 18.5982C139.652 18.8667 139.264 19.0681 138.821 19.2033C138.377 19.3366 137.907 19.4038 137.412 19.4038ZM137.776 11.8615H134.763V20.5021H137.581C138.355 20.5021 139.036 20.38 139.625 20.1357C140.216 19.8924 140.71 19.5688 141.109 19.166C141.507 18.7632 141.808 18.3035 142.011 17.787C142.216 17.2704 142.317 16.7352 142.317 16.1813C142.317 15.9137 142.288 15.621 142.231 15.303C142.174 14.986 142.08 14.669 141.951 14.351C141.821 14.034 141.643 13.7244 141.419 13.4233C141.195 13.123 140.916 12.8564 140.578 12.6242C140.24 12.392 139.842 12.2074 139.382 12.0694C138.922 11.9305 138.387 11.8615 137.776 11.8615ZM144.318 18.4211C144.229 18.174 144.184 17.9027 144.184 17.6099C144.184 17.3171 144.229 17.0458 144.318 16.7987C144.408 16.5507 144.534 16.339 144.697 16.1637C144.859 15.9884 145.059 15.8504 145.294 15.7488C145.53 15.6472 145.795 15.5968 146.088 15.5968C146.381 15.5968 146.646 15.6472 146.88 15.7488C147.117 15.8504 147.316 15.9884 147.479 16.1637C147.641 16.339 147.768 16.5507 147.858 16.7987C147.947 17.0458 147.992 17.3171 147.992 17.6099C147.992 17.9027 147.947 18.174 147.858 18.4211C147.768 18.6691 147.641 18.8808 147.479 19.0561C147.316 19.2314 147.117 19.3694 146.88 19.471C146.646 19.5726 146.381 19.6239 146.088 19.6239C145.795 19.6239 145.53 19.5726 145.294 19.471C145.059 19.3694 144.859 19.2314 144.697 19.0561C144.534 18.8808 144.408 18.6691 144.318 18.4211ZM143.251 16.4257C143.092 16.7922 143.012 17.1866 143.012 17.6099C143.012 18.0332 143.092 18.4295 143.251 18.7997C143.409 19.1698 143.626 19.4915 143.903 19.7638C144.179 20.036 144.505 20.2524 144.88 20.4109C145.254 20.5694 145.657 20.6486 146.088 20.6486C146.52 20.6486 146.922 20.5694 147.295 20.4109C147.67 20.2524 147.996 20.036 148.273 19.7638C148.549 19.4915 148.767 19.1698 148.926 18.7997C149.084 18.4295 149.164 18.0332 149.164 17.6099C149.164 17.1866 149.084 16.7922 148.926 16.4257C148.767 16.0602 148.549 15.7385 148.273 15.4616C147.996 15.1856 147.67 14.9674 147.295 14.8089C146.922 14.6504 146.52 14.5712 146.088 14.5712C145.657 14.5712 145.254 14.6504 144.88 14.8089C144.505 14.9674 144.179 15.1856 143.903 15.4616C143.626 15.7385 143.409 16.0602 143.251 16.4257ZM154.447 14.7173H153.35V20.502H154.447V17.5248C154.447 17.191 154.488 16.9019 154.569 16.6576C154.651 16.4133 154.765 16.2129 154.912 16.0534C155.058 15.8949 155.229 15.7783 155.424 15.7056C155.619 15.6329 155.831 15.5965 156.059 15.5965C156.229 15.5965 156.394 15.6226 156.553 15.6758C156.712 15.728 156.852 15.8138 156.974 15.9313C157.096 16.0497 157.194 16.2045 157.267 16.3956C157.34 16.5868 157.377 16.8161 157.377 17.0847V20.502H158.475V16.7798C158.475 16.3975 158.417 16.0665 158.305 15.7849C158.19 15.5042 158.037 15.2748 157.847 15.0958C157.656 14.9168 157.432 14.7844 157.176 14.6995C156.919 14.6138 156.652 14.5709 156.376 14.5709C155.929 14.5709 155.534 14.6669 155.192 14.8581C154.85 15.0492 154.61 15.2991 154.472 15.6087H154.447V14.7173ZM162.746 15.5964C162.454 15.5964 162.189 15.6468 161.953 15.7493C161.716 15.85 161.519 15.988 161.355 16.1643C161.192 16.3386 161.066 16.5503 160.977 16.7983C160.887 17.0463 160.843 17.3167 160.843 17.6095C160.843 18.1951 161.013 18.665 161.355 19.0193C161.698 19.3736 162.161 19.5499 162.746 19.5499C163.333 19.5499 163.796 19.3736 164.139 19.0193C164.48 18.665 164.65 18.1951 164.65 17.6095C164.65 17.3167 164.606 17.0463 164.516 16.7983C164.427 16.5503 164.301 16.3386 164.139 16.1643C163.974 15.988 163.776 15.85 163.54 15.7493C163.304 15.6468 163.039 15.5964 162.746 15.5964ZM165.749 20.4534C165.749 20.8925 165.673 21.2935 165.523 21.6553C165.373 22.017 165.159 22.3303 164.883 22.5951C164.606 22.859 164.272 23.0651 163.881 23.2115C163.491 23.3578 163.06 23.4315 162.588 23.4315C162.034 23.4315 161.528 23.3541 161.068 23.1993C160.608 23.0446 160.171 22.776 159.756 22.3937L160.5 21.4669C160.786 21.7755 161.094 22.0096 161.429 22.1681C161.762 22.3266 162.14 22.4058 162.564 22.4058C162.97 22.4058 163.308 22.3471 163.576 22.2296C163.845 22.1112 164.058 21.9583 164.218 21.7709C164.375 21.5844 164.488 21.3699 164.553 21.1312C164.618 20.8907 164.65 20.6492 164.65 20.404V19.5499H164.614C164.402 19.9005 164.115 20.1587 163.754 20.3256C163.391 20.4916 163.01 20.5755 162.612 20.5755C162.189 20.5755 161.796 20.5 161.435 20.3489C161.073 20.1988 160.761 19.9918 160.5 19.727C160.24 19.4632 160.037 19.1499 159.891 18.7871C159.744 18.4254 159.67 18.0328 159.67 17.6095C159.67 17.1871 159.739 16.7899 159.878 16.4198C160.016 16.0496 160.214 15.726 160.47 15.4491C160.727 15.1731 161.036 14.9577 161.398 14.8029C161.76 14.6482 162.165 14.5708 162.612 14.5708C163.003 14.5708 163.383 14.6566 163.754 14.8272C164.124 14.9978 164.415 15.2375 164.626 15.547H164.65V14.7172H165.749V20.4534ZM172.132 20.5016H170.96V11.8609H172.132V20.5016ZM177.233 15.6692H175.658V18.2931C175.658 18.4562 175.663 18.6166 175.671 18.7751C175.679 18.9336 175.709 19.0763 175.762 19.2031C175.815 19.329 175.897 19.4306 176.007 19.5071C176.117 19.5845 176.277 19.6236 176.489 19.6236C176.618 19.6236 176.753 19.6115 176.891 19.5863C177.03 19.5621 177.155 19.5173 177.27 19.452V20.4535C177.141 20.5271 176.971 20.5775 176.764 20.6054C176.556 20.6343 176.395 20.6493 176.281 20.6493C175.857 20.6493 175.53 20.5896 175.299 20.4712C175.067 20.3537 174.896 20.2008 174.786 20.0143C174.677 19.8269 174.611 19.6171 174.591 19.3849C174.571 19.1537 174.56 18.9196 174.56 18.6837V15.6692H173.291V14.7173H174.56V13.0939H175.658V14.7173H177.233V15.6692ZM185.153 15.6693H183.616V12.8869H185.153C185.381 12.8869 185.607 12.9046 185.83 12.9419C186.054 12.9783 186.253 13.0454 186.429 13.1433C186.603 13.2403 186.744 13.3811 186.849 13.5639C186.956 13.7466 187.009 13.9853 187.009 14.2781C187.009 14.5709 186.956 14.8086 186.849 14.9923C186.744 15.1751 186.603 15.3149 186.429 15.4138C186.253 15.5107 186.054 15.5779 185.83 15.6142C185.607 15.6506 185.381 15.6693 185.153 15.6693ZM185.483 11.8613H182.444V20.502H183.616V16.6949H184.922L187.118 20.502H188.583L186.129 16.5606C186.455 16.528 186.75 16.4404 187.014 16.2986C187.279 16.156 187.503 15.9807 187.686 15.7728C187.869 15.5658 188.009 15.3336 188.107 15.0781C188.204 14.8208 188.253 14.555 188.253 14.2781C188.253 14.0096 188.212 13.7308 188.131 13.4417C188.05 13.1527 187.906 12.8925 187.699 12.6613C187.491 12.4291 187.208 12.238 186.849 12.0879C186.492 11.9368 186.035 11.8613 185.483 11.8613ZM189.767 14.7169V20.5016H190.865V14.7169H189.767ZM189.51 12.6423C189.51 12.4232 189.59 12.2339 189.748 12.0754C189.907 11.9159 190.097 11.8376 190.316 11.8376C190.535 11.8376 190.725 11.9159 190.883 12.0754C191.042 12.2339 191.121 12.4232 191.121 12.6423C191.121 12.8623 191.042 13.0516 190.883 13.2101C190.725 13.3686 190.535 13.4479 190.316 13.4479C190.097 13.4479 189.907 13.3686 189.748 13.2101C189.59 13.0516 189.51 12.8623 189.51 12.6423ZM194.551 15.7493C194.786 15.6468 195.051 15.5964 195.344 15.5964C195.637 15.5964 195.902 15.6468 196.137 15.7493C196.373 15.85 196.572 15.988 196.736 16.1643C196.898 16.3386 197.024 16.5503 197.114 16.7983C197.203 17.0463 197.248 17.3167 197.248 17.6095C197.248 18.1951 197.077 18.665 196.736 19.0193C196.393 19.3736 195.93 19.5499 195.344 19.5499C194.758 19.5499 194.295 19.3736 193.953 19.0193C193.611 18.665 193.44 18.1951 193.44 17.6095C193.44 17.3167 193.485 17.0463 193.574 16.7983C193.664 16.5503 193.79 16.3386 193.953 16.1643C194.116 15.988 194.314 15.85 194.551 15.7493ZM198.12 21.6553C198.271 21.2935 198.346 20.8925 198.346 20.4534V14.7172H197.248V15.547H197.224C197.011 15.2375 196.721 14.9978 196.351 14.8272C195.98 14.6566 195.6 14.5708 195.21 14.5708C194.762 14.5708 194.357 14.6482 193.996 14.8029C193.633 14.9577 193.324 15.1731 193.067 15.4491C192.812 15.726 192.614 16.0496 192.476 16.4198C192.337 16.7899 192.268 17.1871 192.268 17.6095C192.268 18.0328 192.342 18.4254 192.488 18.7871C192.634 19.1499 192.838 19.4632 193.098 19.727C193.359 19.9918 193.67 20.1988 194.032 20.3489C194.394 20.5 194.786 20.5755 195.21 20.5755C195.608 20.5755 195.988 20.4916 196.351 20.3256C196.713 20.1587 197 19.9005 197.212 19.5499H197.248V20.404C197.248 20.6492 197.215 20.8907 197.15 21.1312C197.086 21.3699 196.973 21.5844 196.815 21.7709C196.656 21.9583 196.442 22.1112 196.174 22.2296C195.905 22.3471 195.568 22.4058 195.16 22.4058C194.737 22.4058 194.358 22.3266 194.026 22.1681C193.692 22.0096 193.383 21.7755 193.098 21.4669L192.354 22.3937C192.769 22.776 193.206 23.0446 193.666 23.1993C194.125 23.3541 194.632 23.4315 195.185 23.4315C195.656 23.4315 196.089 23.3578 196.479 23.2115C196.869 23.0651 197.203 22.859 197.48 22.5951C197.756 22.3303 197.97 22.017 198.12 21.6553ZM208.317 15.6692H209.891V14.7173H208.317V13.0939H207.218V14.7173H205.95V15.6692H207.218V18.6837C207.218 18.9196 207.229 19.1537 207.25 19.3849C207.269 19.6171 207.335 19.8269 207.444 20.0143C207.554 20.2008 207.725 20.3537 207.956 20.4712C208.189 20.5896 208.516 20.6493 208.939 20.6493C209.053 20.6493 209.214 20.6343 209.421 20.6054C209.628 20.5775 209.798 20.5271 209.928 20.4535V19.452C209.814 19.5173 209.688 19.5621 209.549 19.5863C209.411 19.6115 209.277 19.6236 209.146 19.6236C208.935 19.6236 208.774 19.5845 208.665 19.5071C208.555 19.4306 208.473 19.329 208.42 19.2031C208.368 19.0763 208.337 18.9336 208.329 18.7751C208.321 18.6166 208.317 18.4562 208.317 18.2931V15.6692Z" fill="#003865"/>
</svg>
